<?xml version="1.0" encoding="utf-8"?>
<!-- Generator: Adobe Illustrator 24.3.0, SVG Export Plug-In . SVG Version: 6.00 Build 0)  -->
<svg version="1.1" id="Layer_1" xmlns="http://www.w3.org/2000/svg" xmlns:xlink="http://www.w3.org/1999/xlink" x="0px" y="0px"
	 viewBox="0 0 512 512" enable-background="new 0 0 512 512" xml:space="preserve">
<g>
	<path d="M256,234.7c23.5,0,42.7-19.1,42.7-42.7s-19.1-42.7-42.7-42.7s-42.7,19.1-42.7,42.7S232.5,234.7,256,234.7z M256,170.7
		c11.8,0,21.3,9.6,21.3,21.3s-9.6,21.3-21.3,21.3c-11.8,0-21.3-9.6-21.3-21.3S244.2,170.7,256,170.7z"/>
	<path d="M372.9,284.6c20.2-25.5,32.4-57.6,32.4-92.6c0-82.3-67-149.3-149.3-149.3s-149.3,67-149.3,149.3
		c0,34.6,12.1,66.7,32.5,92.5l-31.4,62.8c-0.7,1.5-1.1,3.1-1.1,4.8v106.7c0,5.9,4.8,10.7,10.7,10.7h277.3c5.9,0,10.7-4.8,10.7-10.7
		V352c0-1.7-0.4-3.3-1.1-4.8L372.9,284.6z M128,192c0-70.6,57.4-128,128-128s128,57.4,128,128c0,67.2-52,122.3-117.8,127.5
		l20.9-48.6c2-4.6,0.5-9.9-3.5-12.8s-9.6-2.7-13.3,0.6l-59.9,52.5C161,292.3,128,245.3,128,192z M248.9,305.9L211.8,392
		c-1.1,2.7-2.7,5.2-4.7,7.2c-8.3,8.3-21.8,8.3-30.2,0c-4-4-6.3-9.4-6.3-15.1s2.2-11.1,5.7-14.6L248.9,305.9z M384,448H128v-93.5
		l26.6-53.3c11.1,10.3,23.9,19,38,25.6l-30.8,27.1c-8.1,8-12.5,18.8-12.5,30.2c0,11.4,4.4,22.1,12.5,30.2
		c8.3,8.3,19.2,12.5,30.2,12.5s21.8-4.2,30.2-12.5c4.1-4.1,7.3-9,9.3-14.1l25.3-58.8c38.8-0.2,74.1-15.4,100.6-40l26.6,53.2V448z"/>
	<path d="M394.7,0H117.3C87.9,0,64,23.9,64,53.3v405.3c0,29.4,23.9,53.3,53.3,53.3h277.3c29.4,0,53.3-23.9,53.3-53.3V53.3
		C448,23.9,424.1,0,394.7,0z M426.7,458.7c0,17.6-14.4,32-32,32H117.3c-17.6,0-32-14.4-32-32V53.3c0-17.6,14.4-32,32-32h277.3
		c17.6,0,32,14.4,32,32v405.4H426.7z"/>
</g>
<desc>Disque dur;HDD;Bureau;Desktop</desc>
<rect fill-opacity="0" width="512" height="512"/>
</svg>
